<svg width="277" height="81" fill="none" xmlns="http://www.w3.org/2000/svg"><path d="M70.197 30.504c0-.809.27-1.465.809-1.969.55-.504 1.236-.756 2.056-.756.832 0 1.518.252 2.057.756.55.504.826 1.16.826 1.969 0 .797-.27 1.447-.808 1.951-.54.492-1.23.738-2.075.738-.831 0-1.517-.246-2.056-.738-.54-.504-.809-1.154-.809-1.951zm0-14.397c0-.808.27-1.464.809-1.968.55-.504 1.236-.756 2.056-.756.832 0 1.518.252 2.057.756.55.504.826 1.16.826 1.968 0 .797-.27 1.448-.808 1.952-.54.492-1.23.738-2.075.738-.831 0-1.517-.246-2.056-.738-.54-.504-.809-1.155-.809-1.952zM80.445 33V7.406h7.875c2.25 0 4.26.51 6.03 1.53 1.78 1.007 3.17 2.449 4.166 4.324.996 1.863 1.494 3.984 1.494 6.363v1.178c0 2.379-.492 4.494-1.477 6.346-.972 1.851-2.35 3.287-4.13 4.306-1.782 1.02-3.792 1.535-6.03 1.547h-7.928zm5.274-21.322v17.086h2.549c2.062 0 3.638-.674 4.728-2.022 1.09-1.348 1.647-3.275 1.67-5.783v-1.354c0-2.601-.539-4.57-1.617-5.906-1.078-1.347-2.655-2.021-4.729-2.021H85.72zm26.56 21.674c-2.789 0-5.062-.856-6.82-2.567-1.746-1.71-2.619-3.99-2.619-6.838v-.492c0-1.91.369-3.615 1.107-5.115.739-1.512 1.782-2.672 3.129-3.48 1.36-.82 2.906-1.231 4.641-1.231 2.601 0 4.646.82 6.135 2.46 1.5 1.642 2.25 3.968 2.25 6.98v2.074H107.99c.164 1.242.656 2.238 1.477 2.988.832.75 1.881 1.125 3.146 1.125 1.957 0 3.487-.71 4.588-2.127l2.496 2.795c-.761 1.078-1.793 1.922-3.093 2.531-1.301.598-2.743.897-4.325.897zm-.58-15.61c-1.008 0-1.828.34-2.461 1.02-.621.68-1.019 1.652-1.195 2.918h7.066v-.405c-.023-1.125-.328-1.992-.914-2.601-.586-.621-1.418-.932-2.496-.932zm15.979-3.762l.158 2.198c1.359-1.7 3.182-2.55 5.467-2.55 2.015 0 3.515.593 4.5 1.776.984 1.184 1.488 2.953 1.511 5.309V33h-5.08V20.836c0-1.078-.234-1.857-.703-2.338-.469-.492-1.248-.738-2.338-.738-1.429 0-2.502.61-3.216 1.828V33h-5.081V13.98h4.782zm21.586-4.675v4.675h3.252v3.727h-3.252v9.492c0 .703.134 1.207.404 1.512.27.305.785.457 1.547.457a8.1 8.1 0 001.494-.123v3.85c-.996.304-2.021.457-3.076.457-3.563 0-5.379-1.8-5.449-5.397V17.707h-2.778V13.98h2.778V9.305h5.08zM166.367 33c-.234-.457-.404-1.025-.51-1.705-1.23 1.371-2.83 2.057-4.798 2.057-1.864 0-3.411-.54-4.641-1.618-1.219-1.078-1.828-2.437-1.828-4.078 0-2.015.744-3.562 2.232-4.64 1.5-1.078 3.662-1.623 6.487-1.635h2.337v-1.09c0-.879-.228-1.582-.685-2.11-.445-.527-1.154-.79-2.127-.79-.855 0-1.529.205-2.022.615-.48.41-.72.973-.72 1.687h-5.08c0-1.101.34-2.12 1.019-3.058.68-.938 1.641-1.67 2.883-2.198 1.242-.539 2.637-.808 4.184-.808 2.343 0 4.201.592 5.572 1.775 1.383 1.172 2.074 2.825 2.074 4.957v8.244c.012 1.805.264 3.17.756 4.096V33h-5.133zm-4.201-3.533c.75 0 1.441-.164 2.074-.492.633-.34 1.102-.791 1.406-1.354v-3.27h-1.898c-2.543 0-3.896.88-4.06 2.637l-.018.3c0 .632.223 1.153.668 1.564.445.41 1.055.615 1.828.615zM180.008 33h-5.098V6h5.098v27zM70.198 72.504c0-.809.269-1.465.808-1.969.55-.504 1.236-.756 2.056-.756.832 0 1.518.252 2.057.756.55.504.826 1.16.826 1.969 0 .797-.27 1.447-.808 1.951-.54.492-1.23.738-2.075.738-.831 0-1.517-.246-2.056-.738-.54-.504-.809-1.154-.809-1.951zm0-14.397c0-.808.269-1.464.808-1.968.55-.504 1.236-.756 2.056-.756.832 0 1.518.252 2.057.756.55.504.826 1.16.826 1.968 0 .797-.27 1.448-.808 1.952-.54.492-1.23.738-2.075.738-.831 0-1.517-.246-2.056-.738-.54-.504-.809-1.155-.809-1.952zm15.52 7.875V75h-5.273V49.406h9.985c1.922 0 3.61.352 5.062 1.055 1.465.703 2.59 1.705 3.375 3.006.785 1.289 1.178 2.76 1.178 4.412 0 2.508-.861 4.488-2.584 5.941-1.711 1.442-4.084 2.162-7.12 2.162H85.72zm0-4.271h4.712c1.394 0 2.455-.328 3.181-.984.739-.657 1.108-1.594 1.108-2.813 0-1.254-.37-2.267-1.108-3.041-.738-.773-1.758-1.172-3.058-1.195h-4.834v8.033zm28.319-.967a13.807 13.807 0 00-1.828-.14c-1.922 0-3.182.65-3.779 1.95V75h-5.08V55.98h4.798l.141 2.268c1.02-1.746 2.432-2.62 4.236-2.62.563 0 1.09.077 1.582.23l-.07 4.886zM126.992 75c-.234-.457-.404-1.025-.51-1.705-1.23 1.371-2.83 2.057-4.798 2.057-1.864 0-3.411-.54-4.641-1.618-1.219-1.078-1.828-2.437-1.828-4.078 0-2.015.744-3.562 2.232-4.64 1.5-1.079 3.662-1.623 6.487-1.635h2.337v-1.09c0-.879-.228-1.582-.685-2.11-.445-.527-1.154-.79-2.127-.79-.855 0-1.529.205-2.021.615-.481.41-.721.972-.721 1.687h-5.08c0-1.101.34-2.12 1.019-3.058.68-.938 1.641-1.67 2.883-2.197 1.242-.54 2.637-.81 4.184-.81 2.343 0 4.201.593 5.572 1.776 1.383 1.172 2.074 2.824 2.074 4.957v8.245c.012 1.804.264 3.17.756 4.095V75h-5.133zm-4.201-3.533c.75 0 1.441-.164 2.074-.492.633-.34 1.102-.791 1.406-1.354v-3.27h-1.898c-2.543 0-3.896.88-4.061 2.637l-.017.3c0 .632.223 1.153.668 1.564.445.41 1.055.615 1.828.615zm20.391-.211c.937 0 1.699-.258 2.285-.774.586-.515.89-1.2.914-2.056h4.764a6.567 6.567 0 01-1.055 3.55c-.692 1.067-1.641 1.899-2.848 2.497-1.195.586-2.519.879-3.972.879-2.719 0-4.864-.862-6.434-2.584-1.57-1.735-2.356-4.125-2.356-7.172v-.334c0-2.93.78-5.268 2.338-7.014 1.559-1.746 3.698-2.62 6.416-2.62 2.379 0 4.284.68 5.713 2.04 1.442 1.348 2.174 3.147 2.198 5.397h-4.764c-.024-.985-.328-1.782-.914-2.391-.586-.621-1.36-.932-2.321-.932-1.183 0-2.08.434-2.689 1.301-.598.855-.896 2.25-.896 4.184v.527c0 1.957.298 3.363.896 4.219.598.855 1.506 1.283 2.725 1.283zm16.945-19.951v4.675h3.252v3.727h-3.252v9.492c0 .703.135 1.207.404 1.512.27.305.785.457 1.547.457.563 0 1.061-.041 1.494-.123v3.85c-.996.304-2.021.457-3.076.457-3.562 0-5.379-1.8-5.449-5.397V59.707h-2.777V55.98h2.777v-4.675h5.08zM171.57 75h-5.097V55.98h5.097V75zm-5.396-23.941c0-.762.252-1.39.756-1.881.515-.492 1.213-.738 2.091-.738.868 0 1.559.245 2.075.738.515.492.773 1.119.773 1.88 0 .774-.264 1.407-.791 1.899-.516.492-1.201.738-2.057.738-.855 0-1.546-.246-2.074-.738-.515-.492-.773-1.125-.773-1.898zm17.508 20.197c.937 0 1.699-.258 2.285-.774.586-.515.89-1.2.914-2.056h4.764a6.567 6.567 0 01-1.055 3.55c-.692 1.067-1.641 1.899-2.848 2.497-1.195.586-2.519.879-3.972.879-2.719 0-4.864-.862-6.434-2.584-1.57-1.735-2.356-4.125-2.356-7.172v-.334c0-2.93.78-5.268 2.338-7.014 1.559-1.746 3.698-2.62 6.416-2.62 2.379 0 4.284.68 5.713 2.04 1.442 1.348 2.174 3.147 2.198 5.397h-4.764c-.024-.985-.328-1.782-.914-2.391-.586-.621-1.36-.932-2.321-.932-1.183 0-2.08.434-2.689 1.301-.598.855-.896 2.25-.896 4.184v.527c0 1.957.298 3.363.896 4.219.598.855 1.506 1.283 2.725 1.283zm19.617 4.096c-2.789 0-5.063-.856-6.82-2.567-1.747-1.71-2.62-3.99-2.62-6.838v-.492c0-1.91.37-3.615 1.108-5.115.738-1.512 1.781-2.672 3.129-3.48 1.359-.82 2.906-1.231 4.64-1.231 2.602 0 4.647.82 6.135 2.46 1.5 1.642 2.25 3.968 2.25 6.98v2.074H199.01c.164 1.242.656 2.238 1.476 2.988.832.75 1.881 1.125 3.147 1.125 1.957 0 3.486-.71 4.588-2.127l2.496 2.795c-.762 1.078-1.793 1.922-3.094 2.531-1.301.598-2.742.897-4.324.897zm-.58-15.61c-1.008 0-1.828.34-2.461 1.02-.621.68-1.02 1.652-1.196 2.918h7.067v-.405c-.024-1.125-.328-1.992-.914-2.601-.586-.621-1.418-.932-2.496-.932z" fill="#0055B8"/><g clip-path="url(#clip0)" fill="#0055B8"><path d="M28.508 20.044c-2.125 0-4.201.622-5.968 1.787a10.632 10.632 0 00-3.956 4.758 10.474 10.474 0 00-.61 6.125 10.56 10.56 0 002.939 5.428 10.785 10.785 0 005.5 2.901c2.083.41 4.242.2 6.205-.603a10.712 10.712 0 004.82-3.905 10.503 10.503 0 001.81-5.89 10.547 10.547 0 00-3.15-7.491 10.829 10.829 0 00-7.59-3.11zm0 15.971a5.491 5.491 0 01-3.023-.905 5.385 5.385 0 01-2.003-2.41 5.305 5.305 0 01-.31-3.102 5.349 5.349 0 011.489-2.75 5.463 5.463 0 012.785-1.47 5.507 5.507 0 013.144.306 5.426 5.426 0 012.441 1.978 5.32 5.32 0 01.917 2.983c0 1.425-.573 2.79-1.593 3.798a5.476 5.476 0 01-3.847 1.572z"/><path d="M38.27 56.284c.777-.813 1.554-1.687 2.378-2.592 7.165-8.163 10.787-15.48 10.787-21.787v-1.258c0-6.003-2.416-11.761-6.717-16.007-4.302-4.245-10.135-6.63-16.218-6.63s-11.916 2.385-16.218 6.63c-4.3 4.246-6.717 10.003-6.717 16.007v1.259c0 6.29 3.637 13.623 10.787 21.786.793.905 1.555 1.78 2.379 2.592C11.316 57.098 0 59.307 0 65.382c0 3.253 3.202 5.754 9.528 7.472a75.894 75.894 0 0018.98 2.148 75.894 75.894 0 0018.979-2.148c6.31-1.703 9.529-4.219 9.529-7.472 0-6.137-11.27-8.3-18.731-9.098h-.016zM10.88 31.906v-1.259c0-4.616 1.859-9.043 5.166-12.307a17.753 17.753 0 0112.47-5.098c4.677 0 9.162 1.833 12.47 5.098a17.292 17.292 0 015.164 12.307v1.259c0 4.909-3.264 11.245-9.45 18.288a91.375 91.375 0 01-8.192 8.162 91.28 91.28 0 01-8.145-8.116c-6.218-7.073-9.498-13.425-9.498-18.411l.016.076zm34.058 36.192a74.104 74.104 0 01-16.43 1.657 74.105 74.105 0 01-16.43-1.657c-4.586-1.09-6.218-2.255-6.622-2.716a12.134 12.134 0 015.052-2.3 62.53 62.53 0 0113.197-1.95c1.803 1.642 3.109 2.64 3.109 2.716l1.678 1.35 1.679-1.35c.109-.076 1.321-1.074 3.109-2.715a62.69 62.69 0 0113.15 1.933 12.18 12.18 0 015.099 2.316c-.467.46-2.037 1.627-6.622 2.716h.03z"/></g><defs><clipPath id="clip0"><path fill="#fff" transform="translate(0 8)" d="M0 0h57v67H0z"/></clipPath></defs></svg>